<svg width="344" height="89" viewBox="0 0 344 89" fill="none" xmlns="http://www.w3.org/2000/svg">
<g clip-path="url(#clip0_140_2)">
<path d="M109.866 20.4136L109.628 20.2435C107.567 19.0871 104.633 18.4785 101.147 18.4785C95.6057 18.4785 89.8669 19.9852 87.2786 21.3985L66.8811 32.5648L27.1181 39.3366C26.77 39.3974 26.4469 39.5067 26.1519 39.6676C25.3799 40.0965 24.9347 40.8262 24.9856 41.5757C25.0651 42.6521 26.0908 43.5076 27.4144 43.6062L44.2301 44.9639L27.8393 53.935C22.9591 52.1386 18.3261 50.3961 14.0644 48.7601C7.45987 46.2219 3.1482 45.7752 1.12201 47.4005C-0.987428 49.0929 0.387003 51.9844 1.13958 52.8659L16.9286 69.2791C17.4598 69.901 18.0699 70.2572 18.8022 70.3643C20.0175 70.5319 21.0728 69.9485 22.1726 69.3235L26.1704 67.1148L48.3799 58.468L45.1297 67.7751C44.7733 68.8067 45.3955 69.877 46.6108 70.3267C46.9561 70.4545 47.3449 70.521 47.7291 70.521C48.2772 70.521 48.802 70.3905 49.2592 70.1455C49.5545 69.9865 49.7913 69.7878 49.9886 69.5473L62.697 54.0619L70.4707 46.7692L104.942 27.8996C105.47 27.6123 105.985 27.3473 106.501 27.0801C107.69 26.4723 108.814 25.8955 109.623 25.2409C111.364 23.8492 111.464 22.2958 109.866 20.4136Z" fill="#2A8BD2"/>
</g>
<path d="M127.773 56H124.818L133.364 32.7273H136.273L144.818 56H141.864L134.909 36.4091H134.727L127.773 56ZM128.864 46.9091H140.773V49.4091H128.864V46.9091ZM161.577 43.4091V45.9091H151.986V43.4091H161.577ZM146.44 48.7273H149.349C149.599 50.3636 150.152 51.6212 151.009 52.5C151.865 53.3788 153.236 53.8182 155.122 53.8182C156.455 53.8182 157.569 53.4432 158.463 52.6932C159.365 51.9432 160.039 50.9508 160.486 49.7159C160.94 48.4811 161.168 47.1364 161.168 45.6818V43.0909C161.168 41.4848 160.914 40.072 160.406 38.8523C159.906 37.625 159.183 36.6705 158.236 35.9886C157.296 35.2992 156.168 34.9545 154.849 34.9545C153.698 34.9545 152.743 35.1591 151.986 35.5682C151.228 35.9773 150.637 36.5644 150.213 37.3295C149.789 38.0947 149.501 39.0152 149.349 40.0909H146.44C146.592 38.6061 146.997 37.2879 147.656 36.1364C148.323 34.9773 149.251 34.0682 150.44 33.4091C151.637 32.7424 153.107 32.4091 154.849 32.4091C156.743 32.4091 158.38 32.8523 159.759 33.7386C161.137 34.6174 162.202 35.8561 162.952 37.4545C163.702 39.0455 164.077 40.9091 164.077 43.0455V45.7273C164.077 47.8636 163.705 49.7273 162.963 51.3182C162.221 52.9015 161.179 54.1326 159.838 55.0114C158.497 55.8826 156.925 56.3182 155.122 56.3182C153.274 56.3182 151.736 55.9848 150.509 55.3182C149.289 54.6439 148.346 53.7348 147.679 52.5909C147.02 51.4394 146.607 50.1515 146.44 48.7273ZM168.818 56V32.7273H176.682C178.508 32.7273 180 33.0568 181.159 33.7159C182.326 34.3674 183.189 35.25 183.75 36.3636C184.311 37.4773 184.591 38.7197 184.591 40.0909C184.591 41.4621 184.311 42.7083 183.75 43.8295C183.197 44.9508 182.341 45.8447 181.182 46.5114C180.023 47.1705 178.538 47.5 176.727 47.5H171.091V45H176.636C177.886 45 178.89 44.7841 179.648 44.3523C180.405 43.9205 180.955 43.3371 181.295 42.6023C181.644 41.8598 181.818 41.0227 181.818 40.0909C181.818 39.1591 181.644 38.3258 181.295 37.5909C180.955 36.8561 180.402 36.2803 179.636 35.8636C178.871 35.4394 177.856 35.2273 176.591 35.2273H171.636V56H168.818ZM208.767 44.3636C208.767 46.8182 208.324 48.9394 207.438 50.7273C206.551 52.5152 205.335 53.8939 203.79 54.8636C202.244 55.8333 200.479 56.3182 198.494 56.3182C196.509 56.3182 194.744 55.8333 193.199 54.8636C191.653 53.8939 190.438 52.5152 189.551 50.7273C188.665 48.9394 188.222 46.8182 188.222 44.3636C188.222 41.9091 188.665 39.7879 189.551 38C190.438 36.2121 191.653 34.8333 193.199 33.8636C194.744 32.8939 196.509 32.4091 198.494 32.4091C200.479 32.4091 202.244 32.8939 203.79 33.8636C205.335 34.8333 206.551 36.2121 207.438 38C208.324 39.7879 208.767 41.9091 208.767 44.3636ZM206.04 44.3636C206.04 42.3485 205.703 40.6477 205.028 39.2614C204.362 37.875 203.456 36.8258 202.312 36.1136C201.176 35.4015 199.903 35.0455 198.494 35.0455C197.085 35.0455 195.809 35.4015 194.665 36.1136C193.528 36.8258 192.623 37.875 191.949 39.2614C191.282 40.6477 190.949 42.3485 190.949 44.3636C190.949 46.3788 191.282 48.0795 191.949 49.4659C192.623 50.8523 193.528 51.9015 194.665 52.6136C195.809 53.3258 197.085 53.6818 198.494 53.6818C199.903 53.6818 201.176 53.3258 202.312 52.6136C203.456 51.9015 204.362 50.8523 205.028 49.4659C205.703 48.0795 206.04 46.3788 206.04 44.3636ZM211.506 56V53.4091H212.188C213.157 53.4091 213.911 53.0985 214.449 52.4773C214.987 51.8561 215.373 50.8523 215.608 49.4659C215.85 48.0795 216.013 46.2424 216.097 43.9545L216.506 32.7273H230.688V56H227.869V35.2273H219.188L218.824 44.5C218.733 46.9394 218.509 49.0152 218.153 50.7273C217.797 52.4394 217.172 53.7462 216.278 54.6477C215.384 55.5492 214.081 56 212.369 56H211.506ZM237.273 56H234.318L242.864 32.7273H245.773L254.318 56H251.364L244.409 36.4091H244.227L237.273 56ZM238.364 46.9091H250.273V49.4091H238.364V46.9091ZM257.943 32.7273H260.716V51.0455H260.943L273.67 32.7273H276.398V56H273.58V37.7273H273.352L260.67 56H257.943V32.7273ZM269.398 26.9091H271.898C271.898 28.1364 271.473 29.1402 270.625 29.9205C269.777 30.7008 268.625 31.0909 267.17 31.0909C265.739 31.0909 264.598 30.7008 263.75 29.9205C262.909 29.1402 262.489 28.1364 262.489 26.9091H264.989C264.989 27.5 265.152 28.0189 265.477 28.4659C265.811 28.9129 266.375 29.1364 267.17 29.1364C267.966 29.1364 268.534 28.9129 268.875 28.4659C269.223 28.0189 269.398 27.5 269.398 26.9091ZM282.037 56V32.7273H284.855V43.0909H297.264V32.7273H300.082V56H297.264V45.5909H284.855V56H282.037ZM305.724 56V32.7273H319.77V35.2273H308.543V43.0909H319.043V45.5909H308.543V53.5H319.952V56H305.724ZM324.849 56V32.7273H332.713C334.539 32.7273 336.031 33.0568 337.19 33.7159C338.357 34.3674 339.221 35.25 339.781 36.3636C340.342 37.4773 340.622 38.7197 340.622 40.0909C340.622 41.4621 340.342 42.7083 339.781 43.8295C339.228 44.9508 338.372 45.8447 337.213 46.5114C336.054 47.1705 334.569 47.5 332.759 47.5H327.122V45H332.668C333.918 45 334.921 44.7841 335.679 44.3523C336.437 43.9205 336.986 43.3371 337.327 42.6023C337.675 41.8598 337.849 41.0227 337.849 40.0909C337.849 39.1591 337.675 38.3258 337.327 37.5909C336.986 36.8561 336.433 36.2803 335.668 35.8636C334.902 35.4394 333.887 35.2273 332.622 35.2273H327.668V56H324.849Z" fill="#2A8BD2"/>
<defs>
<clipPath id="clip0_140_2">
<rect width="111" height="89" fill="white"/>
</clipPath>
</defs>
</svg>
