<svg width="30" height="30" viewBox="0 0 30 30" fill="none" xmlns="http://www.w3.org/2000/svg">
<g clip-path="url(#clip0_131_114)">
<path d="M29.2678 25.7328L22.9215 19.3865C24.2328 17.4102 25.0003 15.0439 25.0003 12.5001C25.0003 5.60756 19.3927 0 12.5001 0C5.60756 0 0 5.60756 0 12.5001C0 19.3927 5.60756 25.0003 12.5001 25.0003C15.0439 25.0003 17.4102 24.2328 19.3865 22.9215L25.7328 29.2678C26.7078 30.2441 28.2928 30.2441 29.2678 29.2678C30.2441 28.2915 30.2441 26.709 29.2678 25.7328ZM3.75004 12.5001C3.75004 7.67508 7.67508 3.75004 12.5001 3.75004C17.3252 3.75004 21.2502 7.67508 21.2502 12.5001C21.2502 17.3252 17.3252 21.2502 12.5001 21.2502C7.67508 21.2502 3.75004 17.3252 3.75004 12.5001Z" fill="#2A8BD2"/>
</g>
<defs>
<clipPath id="clip0_131_114">
<rect width="30" height="30" fill="white"/>
</clipPath>
</defs>
</svg>
